<?xml version="1.0" encoding="utf-8"?><svg xmlns="http://www.w3.org/2000/svg" xmlns:xlink="http://www.w3.org/1999/xlink"><symbol style="position:absolute;width:0;height:0;overflow:hidden" viewBox="0 0 100 100" id="sprite" xmlns="http://www.w3.org/2000/svg"><defs><symbol id="aicon-icon__heart" viewBox="0 0 32 32"><path fill="none" stroke-width="1.5" d="M21.921 11.061c-.342-.336-.748-.603-1.195-.785a3.74 3.74 0 0 0-2.82 0 3.691 3.691 0 0 0-1.195.785l-.71.698-.71-.698c-.691-.679-1.628-1.06-2.605-1.06s-1.914.381-2.605 1.06c-.691.679-1.079 1.6-1.079 2.56s.388 1.881 1.079 2.56l5.921 5.818 5.921-5.818c.342-.336.614-.735.799-1.175a3.573 3.573 0 0 0 0-2.772 3.636 3.636 0 0 0-.799-1.175z"/></symbol><symbol id="aicon-icon_arrow" viewBox="0 0 32 32"><path stroke-width="3" d="M16 1.5c8.008 0 14.5 6.492 14.5 14.5S24.008 30.5 16 30.5 1.5 24.008 1.5 16 7.992 1.5 16 1.5z"/><path stroke-linejoin="round" stroke-linecap="round" stroke-width="3" d="m14.489 22 6-6-6-6"/></symbol><symbol id="aicon-icon_close" viewBox="0 0 32 32"><path d="m15.061 16 6.541-6.541-1.061-1.061L14 14.939 7.459 8.398 6.398 9.459 12.939 16l-6.541 6.541 1.061 1.061L14 17.061l6.541 6.541 1.061-1.061L15.061 16z"/></symbol><symbol id="aicon-icon_favorite" viewBox="0 0 39 32"><path d="M28.16 0c-3.105 0-5.828 1.385-7.873 4.005-.273.349-.516.699-.731 1.038a13.341 13.341 0 0 0-.731-1.038C16.78 1.385 14.058 0 10.952 0 5.085 0 .889 4.912.889 10.807c0 6.74 5.524 13.092 17.911 20.596a1.454 1.454 0 0 0 1.512 0c12.387-7.504 17.911-13.856 17.911-20.596C38.223 4.916 34.03 0 28.16 0z"/></symbol><symbol id="aicon-icon_menu" viewBox="0 0 32 32"><path d="M6 13.75h20v-1.5H6v1.5zm0 6h20v-1.5H6v1.5z"/></symbol><symbol id="aicon-icon_tel" viewBox="0 0 32 32"><path fill="none" stroke-width="1.5" d="M12.664 10h-2.506s-.355 2.743 0 4.441c.441 2.109.944 3.411 2.467 4.934s2.825 2.026 4.934 2.467c1.698.355 4.441 0 4.441 0v-2.506a2 2 0 0 0-1.367-1.897l-1.123-.374a.684.684 0 0 0-.764.242 1.702 1.702 0 0 1-2.643.122l-1.438-1.618a1.829 1.829 0 0 1 .096-2.53.73.73 0 0 0 .185-.757l-.385-1.156a2 2 0 0 0-1.897-1.367z"/></symbol><symbol id="aicon-icon_user" viewBox="0 0 32 32"><path d="M13.25 13.401c0-1.475 1.219-2.692 2.75-2.692s2.75 1.217 2.75 2.692-1.219 2.692-2.75 2.692-2.75-1.217-2.75-2.692zM16 9.208c-2.335 0-4.25 1.865-4.25 4.192s1.914 4.192 4.25 4.192c2.335 0 4.25-1.865 4.25-4.192S18.336 9.208 16 9.208zm-3.625 13.458a2.692 2.692 0 0 1 2.692-2.692h1.864a2.692 2.692 0 0 1 2.692 2.692h1.5a4.192 4.192 0 0 0-4.192-4.192h-1.864a4.192 4.192 0 0 0-4.192 4.192h1.5z"/></symbol><symbol id="aicon-logo" viewBox="0 0 91 32"><path d="M75.337 9h2.807c4.103 0 7.12 2.999 7.12 7s-3.021 6.998-7.12 6.998h-2.807c-4.108 0-7.135-3-7.135-6.998s3.026-7 7.135-7zm0 11.866h2.807c2.792 0 4.863-2.082 4.863-4.871s-2.076-4.871-4.863-4.871h-2.807c-2.797 0-4.881 2.099-4.881 4.871s2.089 4.871 4.881 4.871zm-56.302-3.1c-.605 1.914-2.206 3.077-4.273 3.077h-2.81c-2.707 0-4.694-2.025-4.694-4.838s1.987-4.848 4.694-4.848h2.81c2.001 0 3.579 1.085 4.23 2.884h2.244c-.711-3.038-3.274-5.025-6.474-5.025h-2.81C7.951 9.016 5 11.971 5 16.006s2.951 6.982 6.952 6.982h2.81c3.254 0 5.82-2.043 6.521-5.217l-2.249-.003zm6.808 2.889v-3.777h7.94v-2.03h-7.94v-3.525h8.441v-2.07H23.622v13.491h10.873v-2.09h-8.653zM37.17 9.254h7.58c3.977 0 6.853 2.828 6.853 6.741s-2.882 6.75-6.853 6.75h-7.58V9.254zm2.221 11.426h5.293c2.732 0 4.652-1.958 4.652-4.684s-1.92-4.675-4.652-4.675h-5.293v9.359zm24.2-3.239c.812-.283 1.514-.814 2.008-1.517s.753-1.543.742-2.401c0-2.488-1.935-4.269-4.54-4.269h-8.077v13.491h2.221v-4.993h5.369l2.904 4.993h2.493L63.59 17.44zm-1.92-1.759h-5.726v-4.358h5.726c1.464 0 2.411.927 2.411 2.179s-.941 2.179-2.411 2.179z"/></symbol></defs></symbol></svg>