<svg aria-hidden="true" version="1.1" xmlns="http://www.w3.org/2000/svg" xmlns:xlink="http://www.w3.org/1999/xlink">
<defs>
<symbol id="icon_heart" viewBox="0 0 32 32">
<path fill="none" stroke-linejoin="miter" stroke-linecap="butt" stroke-miterlimit="4" stroke-width="1.5" d="M21.921 11.061c-0.342-0.336-0.748-0.603-1.195-0.785s-0.926-0.276-1.41-0.276-0.963 0.094-1.41 0.276c-0.447 0.182-0.853 0.449-1.195 0.785l-0.71 0.698-0.71-0.698c-0.691-0.679-1.628-1.060-2.605-1.060s-1.914 0.381-2.605 1.060c-0.691 0.679-1.079 1.6-1.079 2.56s0.388 1.881 1.079 2.56l5.921 5.818 5.921-5.818c0.342-0.336 0.614-0.735 0.799-1.175s0.281-0.91 0.281-1.386c0-0.476-0.095-0.946-0.281-1.386s-0.457-0.838-0.799-1.175v0z"></path>
</symbol>
<symbol id="icon_arrow" viewBox="0 0 32 32">
<path stroke-linejoin="miter" stroke-linecap="butt" stroke-miterlimit="4" stroke-width="3" d="M16 1.5c8.008 0 14.5 6.492 14.5 14.5s-6.492 14.5-14.5 14.5c-8.008 0-14.5-6.492-14.5-14.5s6.492-14.5 14.5-14.5z"></path>
<path stroke-linejoin="round" stroke-linecap="round" stroke-miterlimit="4" stroke-width="3" d="M14.489 22l6-6-6-6"></path>
</symbol>
<symbol id="icon_close" viewBox="0 0 32 32">
<path d="M15.061 16l6.541-6.541-1.061-1.061-6.541 6.541-6.541-6.541-1.061 1.061 6.541 6.541-6.541 6.541 1.061 1.061 6.541-6.541 6.541 6.541 1.061-1.061-6.541-6.541z"></path>
</symbol>
<symbol id="icon_favorite" viewBox="0 0 39 32">
<path d="M28.16 0c-3.105 0-5.828 1.385-7.873 4.005-0.273 0.349-0.516 0.699-0.731 1.038-0.215-0.339-0.459-0.688-0.731-1.038-2.045-2.62-4.767-4.005-7.873-4.005-5.867 0-10.063 4.912-10.063 10.807 0 6.74 5.524 13.092 17.911 20.596 0.232 0.141 0.494 0.211 0.756 0.211s0.523-0.070 0.756-0.211c12.387-7.504 17.911-13.856 17.911-20.596 0-5.891-4.193-10.807-10.063-10.807z"></path>
</symbol>
<symbol id="icon-menu" viewBox="0 0 32 32">
<path d="M2.667 13h26.667v-2h-26.667v2zM2.667 21h26.667v-2h-26.667v2z"></path>
</symbol>
<symbol id="icon_tel" viewBox="0 0 32 32">
<path fill="none"  stroke-linejoin="miter" stroke-linecap="butt" stroke-miterlimit="4" stroke-width="1.5" d="M12.664 10h-2.506c0 0-0.355 2.743 0 4.441 0.441 2.109 0.944 3.411 2.467 4.934s2.825 2.026 4.934 2.467c1.698 0.355 4.441 0 4.441 0v-2.506c0-0.861-0.551-1.625-1.367-1.897l-1.123-0.374c-0.28-0.093-0.588 0.005-0.764 0.242-0.642 0.872-1.923 0.931-2.643 0.122l-1.438-1.618c-0.651-0.733-0.609-1.849 0.096-2.53 0.202-0.196 0.275-0.49 0.185-0.757l-0.385-1.156c-0.272-0.817-1.037-1.367-1.897-1.367z"></path>
</symbol>
<symbol id="icon_user" viewBox="0 0 32 32">
<path d="M13.25 13.401c0-1.475 1.219-2.692 2.75-2.692s2.75 1.217 2.75 2.692c0 1.475-1.219 2.692-2.75 2.692s-2.75-1.217-2.75-2.692zM16 9.208c-2.335 0-4.25 1.865-4.25 4.192s1.914 4.192 4.25 4.192c2.335 0 4.25-1.865 4.25-4.192s-1.914-4.192-4.25-4.192zM12.375 22.666c0-1.487 1.205-2.692 2.692-2.692h1.864c1.487 0 2.692 1.205 2.692 2.692h1.5c0-2.315-1.877-4.192-4.192-4.192h-1.864c-2.315 0-4.192 1.877-4.192 4.192h1.5z"></path>
</symbol>
<symbol id="icon_logo" viewBox="0 0 91 32">
<path d="M75.337 9h2.807c4.103 0 7.12 2.999 7.12 7s-3.021 6.998-7.12 6.998h-2.807c-4.108 0-7.135-3-7.135-6.998s3.026-7 7.135-7zM75.337 20.866h2.807c2.792 0 4.863-2.082 4.863-4.871s-2.076-4.871-4.863-4.871h-2.807c-2.797 0-4.881 2.099-4.881 4.871s2.089 4.871 4.881 4.871zM19.035 17.766c-0.605 1.914-2.206 3.077-4.273 3.077h-2.81c-2.707 0-4.694-2.025-4.694-4.838s1.987-4.848 4.694-4.848h2.81c2.001 0 3.579 1.085 4.23 2.884h2.244c-0.711-3.038-3.274-5.025-6.474-5.025h-2.81c-4.001 0-6.952 2.955-6.952 6.99s2.951 6.982 6.952 6.982h2.81c3.254 0 5.82-2.043 6.521-5.217l-2.249-0.003zM25.843 20.655v-3.777h7.94v-2.030h-7.94v-3.525h8.441v-2.070h-10.662v13.491h10.873v-2.090h-8.653zM37.17 9.254h7.58c3.977 0 6.853 2.828 6.853 6.741s-2.882 6.75-6.853 6.75h-7.58v-13.491zM39.391 20.68h5.293c2.732 0 4.652-1.958 4.652-4.684s-1.92-4.675-4.652-4.675h-5.293v9.359zM63.591 17.441c0.812-0.283 1.514-0.814 2.008-1.517s0.753-1.543 0.742-2.401c0-2.488-1.935-4.269-4.54-4.269h-8.077v13.491h2.221v-4.993h5.369l2.904 4.993h2.493l-3.121-5.305zM61.671 15.682h-5.726v-4.358h5.726c1.464 0 2.411 0.927 2.411 2.179s-0.941 2.179-2.411 2.179z"></path>
</symbol>
</defs>
</svg>
